<mxfile host="app.diagrams.net" agent="Mozilla/5.0 (Windows NT 10.0; Win64; x64) AppleWebKit/537.36 (KHTML, like Gecko) Chrome/135.0.0.0 Safari/537.36 Edg/135.0.0.0" version="26.2.9">
  <diagram name="Página-1" id="oz86GiUr7FtvtdfqjLBF">
    <mxGraphModel dx="1420" dy="1955" grid="1" gridSize="10" guides="1" tooltips="1" connect="1" arrows="1" fold="1" page="1" pageScale="1" pageWidth="827" pageHeight="1169" math="0" shadow="0">
      <root>
        <mxCell id="0" />
        <mxCell id="1" parent="0" />
        <mxCell id="ynGgJZFgWA74VqTTcelF-3" value="enviar notificações" style="ellipse;whiteSpace=wrap;html=1;fillColor=#7EA6E0;" vertex="1" parent="1">
          <mxGeometry x="170" y="-60" width="100" height="60" as="geometry" />
        </mxCell>
        <mxCell id="ynGgJZFgWA74VqTTcelF-4" value="fazer relatório" style="ellipse;whiteSpace=wrap;html=1;fillColor=#7EA6E0;" vertex="1" parent="1">
          <mxGeometry x="60" y="-100" width="100" height="60" as="geometry" />
        </mxCell>
        <mxCell id="ynGgJZFgWA74VqTTcelF-5" value="validar usuário" style="ellipse;whiteSpace=wrap;html=1;fillColor=#7EA6E0;" vertex="1" parent="1">
          <mxGeometry x="750" y="350" width="100" height="60" as="geometry" />
        </mxCell>
        <mxCell id="ynGgJZFgWA74VqTTcelF-6" value="controle de movimentações internas" style="ellipse;whiteSpace=wrap;html=1;fillColor=#7EA6E0;" vertex="1" parent="1">
          <mxGeometry x="350" y="525" width="100" height="60" as="geometry" />
        </mxCell>
        <mxCell id="ynGgJZFgWA74VqTTcelF-7" value="separar produtos no estoque" style="ellipse;whiteSpace=wrap;html=1;fillColor=#7EA6E0;" vertex="1" parent="1">
          <mxGeometry x="350" y="240" width="100" height="60" as="geometry" />
        </mxCell>
        <mxCell id="ynGgJZFgWA74VqTTcelF-8" value="cadastrar usuário" style="ellipse;whiteSpace=wrap;html=1;fillColor=#7EA6E0;" vertex="1" parent="1">
          <mxGeometry x="350" y="310" width="100" height="60" as="geometry" />
        </mxCell>
        <mxCell id="ynGgJZFgWA74VqTTcelF-9" value="gerenciar pedidos" style="ellipse;whiteSpace=wrap;html=1;fillColor=#7EA6E0;" vertex="1" parent="1">
          <mxGeometry x="350" y="450" width="100" height="60" as="geometry" />
        </mxCell>
        <mxCell id="ynGgJZFgWA74VqTTcelF-10" value="registrar entrada e saída de bens" style="ellipse;whiteSpace=wrap;html=1;fillColor=#7EA6E0;" vertex="1" parent="1">
          <mxGeometry x="350" y="100" width="100" height="60" as="geometry" />
        </mxCell>
        <mxCell id="ynGgJZFgWA74VqTTcelF-11" value="manter item" style="ellipse;whiteSpace=wrap;html=1;fillColor=#7EA6E0;" vertex="1" parent="1">
          <mxGeometry x="350" y="30" width="100" height="60" as="geometry" />
        </mxCell>
        <mxCell id="ynGgJZFgWA74VqTTcelF-12" value="fazer pedido/solicitar remoção do estoque" style="ellipse;whiteSpace=wrap;html=1;fillColor=#7EA6E0;" vertex="1" parent="1">
          <mxGeometry x="350" y="380" width="100" height="60" as="geometry" />
        </mxCell>
        <mxCell id="ynGgJZFgWA74VqTTcelF-13" value="controle de estoque" style="ellipse;whiteSpace=wrap;html=1;fillColor=#7EA6E0;" vertex="1" parent="1">
          <mxGeometry x="350" y="170" width="100" height="60" as="geometry" />
        </mxCell>
        <mxCell id="ynGgJZFgWA74VqTTcelF-14" value="cadastrar produto" style="ellipse;whiteSpace=wrap;html=1;fillColor=#7EA6E0;" vertex="1" parent="1">
          <mxGeometry x="350" y="-40" width="100" height="60" as="geometry" />
        </mxCell>
        <mxCell id="ynGgJZFgWA74VqTTcelF-18" value="" style="endArrow=classic;html=1;rounded=0;exitX=0.75;exitY=0.1;exitDx=0;exitDy=0;exitPerimeter=0;entryX=0;entryY=1;entryDx=0;entryDy=0;" edge="1" parent="1" source="ynGgJZFgWA74VqTTcelF-31" target="ynGgJZFgWA74VqTTcelF-3">
          <mxGeometry width="50" height="50" relative="1" as="geometry">
            <mxPoint x="160" y="60" as="sourcePoint" />
            <mxPoint x="210" y="10" as="targetPoint" />
          </mxGeometry>
        </mxCell>
        <mxCell id="ynGgJZFgWA74VqTTcelF-20" value="" style="endArrow=classic;html=1;rounded=0;exitX=1;exitY=1;exitDx=0;exitDy=0;exitPerimeter=0;entryX=0;entryY=0.5;entryDx=0;entryDy=0;" edge="1" parent="1" source="ynGgJZFgWA74VqTTcelF-31" target="ynGgJZFgWA74VqTTcelF-7">
          <mxGeometry width="50" height="50" relative="1" as="geometry">
            <mxPoint x="195" y="400" as="sourcePoint" />
            <mxPoint x="245" y="350" as="targetPoint" />
          </mxGeometry>
        </mxCell>
        <mxCell id="ynGgJZFgWA74VqTTcelF-29" value="ADM" style="shape=umlActor;verticalLabelPosition=bottom;verticalAlign=top;html=1;outlineConnect=0;" vertex="1" parent="1">
          <mxGeometry x="90" y="450" width="30" height="60" as="geometry" />
        </mxCell>
        <mxCell id="ynGgJZFgWA74VqTTcelF-30" value="cliente" style="shape=umlActor;verticalLabelPosition=bottom;verticalAlign=top;html=1;outlineConnect=0;" vertex="1" parent="1">
          <mxGeometry x="90" y="260" width="30" height="60" as="geometry" />
        </mxCell>
        <mxCell id="ynGgJZFgWA74VqTTcelF-31" value="sistema" style="shape=umlActor;verticalLabelPosition=bottom;verticalAlign=top;html=1;outlineConnect=0;" vertex="1" parent="1">
          <mxGeometry x="90" y="40" width="30" height="60" as="geometry" />
        </mxCell>
        <mxCell id="ynGgJZFgWA74VqTTcelF-36" value="" style="endArrow=classic;html=1;rounded=0;exitX=0.5;exitY=0;exitDx=0;exitDy=0;exitPerimeter=0;entryX=0.5;entryY=1;entryDx=0;entryDy=0;" edge="1" parent="1" source="ynGgJZFgWA74VqTTcelF-31" target="ynGgJZFgWA74VqTTcelF-4">
          <mxGeometry width="50" height="50" relative="1" as="geometry">
            <mxPoint x="50" y="50" as="sourcePoint" />
            <mxPoint x="100" as="targetPoint" />
          </mxGeometry>
        </mxCell>
        <mxCell id="ynGgJZFgWA74VqTTcelF-37" value="" style="endArrow=classic;html=1;rounded=0;exitX=0.5;exitY=0.5;exitDx=0;exitDy=0;exitPerimeter=0;entryX=0;entryY=0.5;entryDx=0;entryDy=0;" edge="1" parent="1" source="ynGgJZFgWA74VqTTcelF-30" target="ynGgJZFgWA74VqTTcelF-8">
          <mxGeometry width="50" height="50" relative="1" as="geometry">
            <mxPoint x="170" y="170" as="sourcePoint" />
            <mxPoint x="220" y="120" as="targetPoint" />
          </mxGeometry>
        </mxCell>
        <mxCell id="ynGgJZFgWA74VqTTcelF-38" value="" style="endArrow=classic;html=1;rounded=0;entryX=0;entryY=0.383;entryDx=0;entryDy=0;entryPerimeter=0;" edge="1" parent="1" source="ynGgJZFgWA74VqTTcelF-31" target="ynGgJZFgWA74VqTTcelF-14">
          <mxGeometry width="50" height="50" relative="1" as="geometry">
            <mxPoint x="180" y="180" as="sourcePoint" />
            <mxPoint x="230" y="130" as="targetPoint" />
          </mxGeometry>
        </mxCell>
        <mxCell id="ynGgJZFgWA74VqTTcelF-39" value="" style="endArrow=classic;html=1;rounded=0;entryX=0;entryY=0.317;entryDx=0;entryDy=0;entryPerimeter=0;" edge="1" parent="1" source="ynGgJZFgWA74VqTTcelF-30" target="ynGgJZFgWA74VqTTcelF-12">
          <mxGeometry width="50" height="50" relative="1" as="geometry">
            <mxPoint x="190" y="190" as="sourcePoint" />
            <mxPoint x="240" y="140" as="targetPoint" />
          </mxGeometry>
        </mxCell>
        <mxCell id="ynGgJZFgWA74VqTTcelF-40" value="" style="endArrow=classic;html=1;rounded=0;entryX=0.01;entryY=0.333;entryDx=0;entryDy=0;entryPerimeter=0;" edge="1" parent="1" source="ynGgJZFgWA74VqTTcelF-31" target="ynGgJZFgWA74VqTTcelF-11">
          <mxGeometry width="50" height="50" relative="1" as="geometry">
            <mxPoint x="180" y="320" as="sourcePoint" />
            <mxPoint x="230" y="270" as="targetPoint" />
          </mxGeometry>
        </mxCell>
        <mxCell id="ynGgJZFgWA74VqTTcelF-41" value="" style="endArrow=classic;html=1;rounded=0;entryX=0;entryY=0.5;entryDx=0;entryDy=0;" edge="1" parent="1" source="ynGgJZFgWA74VqTTcelF-31" target="ynGgJZFgWA74VqTTcelF-10">
          <mxGeometry width="50" height="50" relative="1" as="geometry">
            <mxPoint x="180" y="380" as="sourcePoint" />
            <mxPoint x="230" y="330" as="targetPoint" />
          </mxGeometry>
        </mxCell>
        <mxCell id="ynGgJZFgWA74VqTTcelF-42" value="" style="endArrow=classic;html=1;rounded=0;entryX=0.05;entryY=0.3;entryDx=0;entryDy=0;entryPerimeter=0;" edge="1" parent="1" source="ynGgJZFgWA74VqTTcelF-31" target="ynGgJZFgWA74VqTTcelF-13">
          <mxGeometry width="50" height="50" relative="1" as="geometry">
            <mxPoint x="220" y="320" as="sourcePoint" />
            <mxPoint x="270" y="270" as="targetPoint" />
          </mxGeometry>
        </mxCell>
        <mxCell id="ynGgJZFgWA74VqTTcelF-43" value="" style="endArrow=classic;html=1;rounded=0;entryX=0;entryY=0.5;entryDx=0;entryDy=0;" edge="1" parent="1" target="ynGgJZFgWA74VqTTcelF-9">
          <mxGeometry width="50" height="50" relative="1" as="geometry">
            <mxPoint x="120" y="480" as="sourcePoint" />
            <mxPoint x="220" y="400" as="targetPoint" />
          </mxGeometry>
        </mxCell>
        <mxCell id="ynGgJZFgWA74VqTTcelF-44" value="" style="endArrow=classic;html=1;rounded=0;exitX=0.5;exitY=0.5;exitDx=0;exitDy=0;exitPerimeter=0;entryX=0.01;entryY=0.333;entryDx=0;entryDy=0;entryPerimeter=0;" edge="1" parent="1" source="ynGgJZFgWA74VqTTcelF-29" target="ynGgJZFgWA74VqTTcelF-6">
          <mxGeometry width="50" height="50" relative="1" as="geometry">
            <mxPoint x="220" y="460" as="sourcePoint" />
            <mxPoint x="270" y="410" as="targetPoint" />
          </mxGeometry>
        </mxCell>
        <mxCell id="ynGgJZFgWA74VqTTcelF-53" value="&amp;lt;&amp;lt;include&amp;gt;&amp;gt;" style="endArrow=block;dashed=1;endFill=0;endSize=12;html=1;rounded=0;fillColor=#000000;exitX=1;exitY=0.5;exitDx=0;exitDy=0;entryX=0.07;entryY=0.733;entryDx=0;entryDy=0;entryPerimeter=0;" edge="1" parent="1" source="ynGgJZFgWA74VqTTcelF-12" target="ynGgJZFgWA74VqTTcelF-5">
          <mxGeometry width="160" relative="1" as="geometry">
            <mxPoint x="460" y="409.5" as="sourcePoint" />
            <mxPoint x="620" y="409.5" as="targetPoint" />
          </mxGeometry>
        </mxCell>
        <mxCell id="ynGgJZFgWA74VqTTcelF-55" value="&amp;lt;&amp;lt;include&amp;gt;&amp;gt;" style="endArrow=block;dashed=1;endFill=0;endSize=12;html=1;rounded=0;fillColor=#000000;" edge="1" parent="1" source="ynGgJZFgWA74VqTTcelF-8" target="ynGgJZFgWA74VqTTcelF-5">
          <mxGeometry width="160" relative="1" as="geometry">
            <mxPoint x="460" y="320" as="sourcePoint" />
            <mxPoint x="620" y="310" as="targetPoint" />
          </mxGeometry>
        </mxCell>
        <mxCell id="ynGgJZFgWA74VqTTcelF-56" value="&amp;lt;&amp;lt;include&amp;gt;&amp;gt;" style="endArrow=block;dashed=1;endFill=0;endSize=12;html=1;rounded=0;fillColor=#000000;exitX=0.97;exitY=0.333;exitDx=0;exitDy=0;entryX=0.68;entryY=0.983;entryDx=0;entryDy=0;exitPerimeter=0;entryPerimeter=0;" edge="1" parent="1" source="ynGgJZFgWA74VqTTcelF-64" target="ynGgJZFgWA74VqTTcelF-63">
          <mxGeometry width="160" relative="1" as="geometry">
            <mxPoint x="500" y="620" as="sourcePoint" />
            <mxPoint x="670" y="520" as="targetPoint" />
            <Array as="points">
              <mxPoint x="890" y="620" />
            </Array>
          </mxGeometry>
        </mxCell>
        <mxCell id="ynGgJZFgWA74VqTTcelF-57" value="&amp;lt;&amp;lt;include&amp;gt;&amp;gt;" style="endArrow=block;dashed=1;endFill=0;endSize=12;html=1;rounded=0;fillColor=#000000;exitX=0.95;exitY=0.733;exitDx=0;exitDy=0;exitPerimeter=0;entryX=0;entryY=0.5;entryDx=0;entryDy=0;" edge="1" parent="1" source="ynGgJZFgWA74VqTTcelF-12" target="ynGgJZFgWA74VqTTcelF-61">
          <mxGeometry x="-0.0437" y="3" width="160" relative="1" as="geometry">
            <mxPoint x="470" y="460" as="sourcePoint" />
            <mxPoint x="590" y="420" as="targetPoint" />
            <mxPoint as="offset" />
          </mxGeometry>
        </mxCell>
        <mxCell id="ynGgJZFgWA74VqTTcelF-58" value="&amp;lt;&amp;lt;include&amp;gt;&amp;gt;" style="endArrow=block;dashed=1;endFill=0;endSize=12;html=1;rounded=0;fillColor=#000000;exitX=1;exitY=0.5;exitDx=0;exitDy=0;entryX=0.02;entryY=0.75;entryDx=0;entryDy=0;entryPerimeter=0;" edge="1" parent="1" source="ynGgJZFgWA74VqTTcelF-9" target="ynGgJZFgWA74VqTTcelF-61">
          <mxGeometry width="160" relative="1" as="geometry">
            <mxPoint x="480" y="570" as="sourcePoint" />
            <mxPoint x="650" y="470" as="targetPoint" />
          </mxGeometry>
        </mxCell>
        <mxCell id="ynGgJZFgWA74VqTTcelF-59" value="&amp;lt;&amp;lt;include&amp;gt;&amp;gt;" style="endArrow=block;dashed=1;endFill=0;endSize=12;html=1;rounded=0;fillColor=#000000;exitX=1;exitY=0.5;exitDx=0;exitDy=0;entryX=0;entryY=0.5;entryDx=0;entryDy=0;" edge="1" parent="1" source="ynGgJZFgWA74VqTTcelF-10" target="ynGgJZFgWA74VqTTcelF-63">
          <mxGeometry width="160" relative="1" as="geometry">
            <mxPoint x="490" y="210" as="sourcePoint" />
            <mxPoint x="580" y="190" as="targetPoint" />
          </mxGeometry>
        </mxCell>
        <mxCell id="ynGgJZFgWA74VqTTcelF-60" value="&amp;lt;&amp;lt;include&amp;gt;&amp;gt;" style="endArrow=block;dashed=1;endFill=0;endSize=12;html=1;rounded=0;fillColor=#000000;exitX=0.94;exitY=0.7;exitDx=0;exitDy=0;entryX=0.34;entryY=0.017;entryDx=0;entryDy=0;exitPerimeter=0;entryPerimeter=0;" edge="1" parent="1" source="ynGgJZFgWA74VqTTcelF-14" target="ynGgJZFgWA74VqTTcelF-63">
          <mxGeometry width="160" relative="1" as="geometry">
            <mxPoint x="460" y="100" as="sourcePoint" />
            <mxPoint x="630" as="targetPoint" />
          </mxGeometry>
        </mxCell>
        <mxCell id="ynGgJZFgWA74VqTTcelF-61" value="checar estoque" style="ellipse;whiteSpace=wrap;html=1;fillColor=#7EA6E0;" vertex="1" parent="1">
          <mxGeometry x="660" y="465" width="100" height="60" as="geometry" />
        </mxCell>
        <mxCell id="ynGgJZFgWA74VqTTcelF-63" value="validar fornecedor" style="ellipse;whiteSpace=wrap;html=1;fillColor=#7EA6E0;" vertex="1" parent="1">
          <mxGeometry x="820" y="150" width="100" height="60" as="geometry" />
        </mxCell>
        <mxCell id="ynGgJZFgWA74VqTTcelF-64" value="cadastrar fornecedores" style="ellipse;whiteSpace=wrap;html=1;fillColor=#7EA6E0;" vertex="1" parent="1">
          <mxGeometry x="350" y="600" width="100" height="60" as="geometry" />
        </mxCell>
        <mxCell id="ynGgJZFgWA74VqTTcelF-65" value="cadastrar pedidos" style="ellipse;whiteSpace=wrap;html=1;fillColor=#7EA6E0;" vertex="1" parent="1">
          <mxGeometry x="350" y="670" width="100" height="60" as="geometry" />
        </mxCell>
        <mxCell id="ynGgJZFgWA74VqTTcelF-67" value="" style="endArrow=classic;html=1;rounded=0;entryX=0;entryY=0.5;entryDx=0;entryDy=0;" edge="1" parent="1" source="ynGgJZFgWA74VqTTcelF-29" target="ynGgJZFgWA74VqTTcelF-65">
          <mxGeometry width="50" height="50" relative="1" as="geometry">
            <mxPoint x="115" y="525" as="sourcePoint" />
            <mxPoint x="361" y="590" as="targetPoint" />
          </mxGeometry>
        </mxCell>
        <mxCell id="ynGgJZFgWA74VqTTcelF-68" value="" style="endArrow=classic;html=1;rounded=0;entryX=0;entryY=0.5;entryDx=0;entryDy=0;" edge="1" parent="1" source="ynGgJZFgWA74VqTTcelF-29" target="ynGgJZFgWA74VqTTcelF-64">
          <mxGeometry width="50" height="50" relative="1" as="geometry">
            <mxPoint x="104" y="540" as="sourcePoint" />
            <mxPoint x="350" y="605" as="targetPoint" />
          </mxGeometry>
        </mxCell>
        <mxCell id="ynGgJZFgWA74VqTTcelF-69" value="&amp;lt;&amp;lt;include&amp;gt;&amp;gt;" style="endArrow=block;dashed=1;endFill=0;endSize=12;html=1;rounded=0;fillColor=#000000;exitX=1.03;exitY=0.367;exitDx=0;exitDy=0;exitPerimeter=0;entryX=0.5;entryY=1;entryDx=0;entryDy=0;" edge="1" parent="1" source="ynGgJZFgWA74VqTTcelF-65" target="ynGgJZFgWA74VqTTcelF-5">
          <mxGeometry width="160" relative="1" as="geometry">
            <mxPoint x="510" y="729.5" as="sourcePoint" />
            <mxPoint x="810" y="400" as="targetPoint" />
            <Array as="points">
              <mxPoint x="810" y="700" />
            </Array>
          </mxGeometry>
        </mxCell>
      </root>
    </mxGraphModel>
  </diagram>
</mxfile>
